<svg width="174" height="174" viewBox="0 0 174 174" fill="none" xmlns="http://www.w3.org/2000/svg">
<rect width="174" height="174" fill="#060B0C"/>
<path d="M61.5 50.8C65.9 50.8 69.5 51.4667 72.3 52.8C75.1667 54.0667 77.7 55.5667 79.9 57.3C81.2333 58.3 82.2333 58.4333 82.9 57.7C83.6333 56.9 84.1333 55.0667 84.4 52.2H86.7C86.5667 54.8 86.4667 58 86.4 61.8C86.3333 65.6 86.3 70.6 86.3 76.8H84C83.7333 73.6667 83.3 70.9333 82.7 68.6C82.1667 66.2667 81.3667 64.2 80.3 62.4C79.2333 60.6 77.7 59 75.7 57.6C74.1667 56.3333 72.4333 55.3667 70.5 54.7C68.6333 53.9667 66.7 53.6 64.7 53.6C61.0333 53.6 57.9333 54.6333 55.4 56.7C52.9333 58.7 50.9333 61.3667 49.4 64.7C47.9333 67.9667 46.8667 71.6333 46.2 75.7C45.6 79.7 45.3 83.7333 45.3 87.8C45.3 91.9333 45.6333 96.0333 46.3 100.1C46.9667 104.1 48.0333 107.733 49.5 111C51.0333 114.267 53.0667 116.9 55.6 118.9C58.1333 120.833 61.2333 121.8 64.9 121.8C66.8333 121.8 68.7333 121.467 70.6 120.8C72.5333 120.133 74.2667 119.167 75.8 117.9C78.7333 115.9 80.7 113.3 81.7 110.1C82.7667 106.833 83.5333 102.6 84 97.4H86.3C86.3 103.867 86.3333 109.1 86.4 113.1C86.4667 117.033 86.5667 120.333 86.7 123H84.4C84.1333 120.133 83.6667 118.333 83 117.6C82.4 116.867 81.3667 116.967 79.9 117.9C77.4333 119.633 74.8 121.167 72 122.5C69.2667 123.767 65.7333 124.4 61.4 124.4C54.1333 124.4 47.7333 122.967 42.2 120.1C36.7333 117.233 32.4667 113.1 29.4 107.7C26.4 102.3 24.9 95.8 24.9 88.2C24.9 80.7333 26.4667 74.2 29.6 68.6C32.7333 63 37.0333 58.6333 42.5 55.5C48.0333 52.3667 54.3667 50.8 61.5 50.8ZM128.694 52.2V54.2C126.427 54.2667 124.694 54.5333 123.494 55C122.36 55.4 121.594 56.2 121.194 57.4C120.794 58.5333 120.594 60.3333 120.594 62.8V114C120.594 115.933 120.727 117.4 120.994 118.4C121.327 119.333 121.894 119.967 122.694 120.3C123.494 120.567 124.694 120.7 126.294 120.7H130.394C132.394 120.7 134.394 120.1 136.394 118.9C138.394 117.7 140.26 116.033 141.994 113.9C143.727 111.7 145.227 109.2 146.494 106.4C147.76 103.533 148.66 100.467 149.194 97.2H151.494C151.294 99.5333 151.194 102.533 151.194 106.2C151.194 107.867 151.227 110.267 151.294 113.4C151.36 116.467 151.56 119.667 151.894 123C148.494 122.867 144.66 122.8 140.394 122.8C136.127 122.733 132.327 122.7 128.994 122.7C127.26 122.7 125.06 122.7 122.394 122.7C119.727 122.7 116.827 122.733 113.694 122.8C110.56 122.8 107.394 122.833 104.194 122.9C100.994 122.9 97.9938 122.933 95.1938 123V121C97.2604 120.867 98.7938 120.6 99.7938 120.2C100.86 119.8 101.56 119 101.894 117.8C102.294 116.6 102.494 114.8 102.494 112.4V62.8C102.494 60.3333 102.294 58.5333 101.894 57.4C101.56 56.2 100.86 55.4 99.7938 55C98.7938 54.5333 97.2604 54.2667 95.1938 54.2V52.2C96.9938 52.2667 99.3938 52.3333 102.394 52.4C105.394 52.4667 108.594 52.5 111.994 52.5C115.127 52.5 118.194 52.4667 121.194 52.4C124.194 52.3333 126.694 52.2667 128.694 52.2Z" fill="white"/>
</svg>
