<svg width="313" height="313" viewBox="0 0 313 313" fill="none" xmlns="http://www.w3.org/2000/svg">
<rect width="313" height="313" fill="#060B0C"/>
<path d="M130 125.8C134.4 125.8 138 126.467 140.8 127.8C143.667 129.067 146.2 130.567 148.4 132.3C149.733 133.3 150.733 133.433 151.4 132.7C152.133 131.9 152.633 130.067 152.9 127.2H155.2C155.067 129.733 154.967 132.8 154.9 136.4C154.833 139.933 154.8 144.667 154.8 150.6H152.5C152.033 147.667 151.567 145.267 151.1 143.4C150.7 141.533 150.133 139.933 149.4 138.6C148.733 137.267 147.8 135.967 146.6 134.7C144.667 132.3 142.3 130.567 139.5 129.5C136.7 128.433 133.733 127.9 130.6 127.9C127.2 127.9 124.2 128.767 121.6 130.5C119 132.167 116.8 134.567 115 137.7C113.267 140.833 111.933 144.533 111 148.8C110.067 153.067 109.6 157.733 109.6 162.8C109.6 168 110.1 172.733 111.1 177C112.1 181.2 113.533 184.833 115.4 187.9C117.333 190.9 119.633 193.233 122.3 194.9C125.033 196.5 128.067 197.3 131.4 197.3C134.133 197.3 136.967 196.767 139.9 195.7C142.833 194.567 145.167 192.867 146.9 190.6C148.767 188.6 150.033 186.367 150.7 183.9C151.433 181.367 152.033 177.933 152.5 173.6H154.8C154.8 179.733 154.833 184.7 154.9 188.5C154.967 192.233 155.067 195.4 155.2 198H152.9C152.633 195.133 152.167 193.333 151.5 192.6C150.9 191.867 149.867 191.967 148.4 192.9C145.933 194.633 143.3 196.167 140.5 197.5C137.767 198.767 134.233 199.4 129.9 199.4C123.3 199.4 117.533 197.967 112.6 195.1C107.667 192.233 103.833 188.1 101.1 182.7C98.3667 177.3 97 170.8 97 163.2C97 155.733 98.4 149.2 101.2 143.6C104.067 138 107.967 133.633 112.9 130.5C117.833 127.367 123.533 125.8 130 125.8ZM192.834 127.2V129.2C190.567 129.267 188.834 129.533 187.634 130C186.5 130.4 185.734 131.2 185.334 132.4C184.934 133.533 184.734 135.333 184.734 137.8V187.8C184.734 190.067 184.9 191.767 185.234 192.9C185.634 194.033 186.367 194.8 187.434 195.2C188.567 195.533 190.167 195.7 192.234 195.7H198.734C201.6 195.7 204 195.3 205.934 194.5C207.934 193.7 209.6 192.5 210.934 190.9C212.267 189.3 213.3 187.233 214.034 184.7C214.767 182.167 215.334 179.2 215.734 175.8H218.034C217.834 177.933 217.734 180.733 217.734 184.2C217.734 185.533 217.767 187.5 217.834 190.1C217.967 192.633 218.167 195.267 218.434 198C215.034 197.867 211.2 197.8 206.934 197.8C202.667 197.733 198.867 197.7 195.534 197.7C194 197.7 192.034 197.7 189.634 197.7C187.234 197.7 184.634 197.733 181.834 197.8C179.1 197.8 176.3 197.833 173.434 197.9C170.634 197.9 167.934 197.933 165.334 198V196C167.6 195.867 169.3 195.6 170.434 195.2C171.567 194.8 172.3 194 172.634 192.8C173.034 191.6 173.234 189.8 173.234 187.4V137.8C173.234 135.333 173.034 133.533 172.634 132.4C172.3 131.2 171.534 130.4 170.334 130C169.2 129.533 167.534 129.267 165.334 129.2V127.2C166.867 127.267 168.834 127.333 171.234 127.4C173.7 127.467 176.334 127.5 179.134 127.5C181.667 127.5 184.167 127.467 186.634 127.4C189.167 127.333 191.234 127.267 192.834 127.2Z" fill="white"/>
</svg>
